<svg width="20" height="20" viewBox="0 0 20 20" fill="none" xmlns="http://www.w3.org/2000/svg">
<path d="M20 10C20 4.47715 15.5228 0 10 0C4.47715 0 0 4.47715 0 10C0 15.5228 4.47715 20 10 20C15.5228 20 20 15.5228 20 10Z" fill="white"/>
<path fill-rule="evenodd" clip-rule="evenodd" d="M14.8938 10.1135C14.8938 9.759 14.8619 9.41809 14.8029 9.09082H10.0938V11.0249H12.7847C12.6688 11.6499 12.3165 12.1795 11.7869 12.534V13.7886H13.4028C14.3483 12.9181 14.8938 11.6363 14.8938 10.1135Z" fill="#4285F4"/>
<path fill-rule="evenodd" clip-rule="evenodd" d="M10.0937 15.0002C11.4437 15.0002 12.5755 14.5525 13.4028 13.7888L11.7869 12.5343C11.3391 12.8343 10.7664 13.0116 10.0937 13.0116C8.7914 13.0116 7.68913 12.132 7.29595 10.9502H5.62549V12.2457C6.44822 13.8797 8.13913 15.0002 10.0937 15.0002Z" fill="#34A853"/>
<path fill-rule="evenodd" clip-rule="evenodd" d="M7.29603 10.9499C7.19603 10.6499 7.13921 10.3294 7.13921 9.99985C7.13921 9.67031 7.19603 9.34985 7.29603 9.04985V7.75439H5.62557C5.28693 8.4294 5.09375 9.19303 5.09375 9.99985C5.09375 10.8067 5.28693 11.5703 5.62557 12.2453L7.29603 10.9499Z" fill="#FBBC05"/>
<path fill-rule="evenodd" clip-rule="evenodd" d="M10.0937 6.98864C10.8278 6.98864 11.4869 7.24091 12.005 7.73637L13.4391 6.30228C12.5732 5.49546 11.4414 5 10.0937 5C8.13913 5 6.44822 6.12046 5.62549 7.75455L7.29595 9.05001C7.68913 7.86819 8.7914 6.98864 10.0937 6.98864Z" fill="#EA4335"/>
</svg>
